<svg width="49" height="49" viewBox="0 0 49 49" fill="none" xmlns="http://www.w3.org/2000/svg">
<g clip-path="url(#clip0_100_4406)">
<path d="M14.2916 28.5833C13.1687 28.5833 12.2078 28.1838 11.4088 27.3849C10.6098 26.5859 10.2097 25.6243 10.2083 24.5C10.2069 23.3757 10.6071 22.4148 11.4088 21.6172C12.2105 20.8196 13.1714 20.4194 14.2916 20.4167C15.4118 20.4139 16.3734 20.8141 17.1765 21.6172C17.9796 22.4202 18.379 23.3812 18.375 24.5C18.3709 25.6188 17.9714 26.5805 17.1765 27.3849C16.3816 28.1893 15.42 28.5888 14.2916 28.5833ZM14.2916 36.75C10.8888 36.75 7.99649 35.559 5.61454 33.1771C3.2326 30.7951 2.04163 27.9028 2.04163 24.5C2.04163 21.0972 3.2326 18.2049 5.61454 15.8229C7.99649 13.441 10.8888 12.25 14.2916 12.25C16.5715 12.25 18.639 12.8115 20.4942 13.9344C22.3494 15.0573 23.8208 16.5375 24.9083 18.375H42.875L49 24.5L39.8125 33.6875L35.7291 30.625L31.6458 33.6875L27.3073 30.625H24.9083C23.8194 32.4625 22.348 33.9427 20.4942 35.0656C18.6404 36.1885 16.5728 36.75 14.2916 36.75ZM14.2916 32.6667C16.1972 32.6667 17.8734 32.0882 19.3203 30.9312C20.7671 29.7743 21.7281 28.3111 22.2031 26.5417H28.5833L31.5437 28.6344L35.7291 25.5208L39.3531 28.3281L43.1812 24.5L41.1395 22.4583H22.2031C21.7267 20.6889 20.7658 19.2257 19.3203 18.0688C17.8748 16.9118 16.1985 16.3333 14.2916 16.3333C12.0458 16.3333 10.1232 17.133 8.52392 18.7323C6.92461 20.3316 6.12496 22.2542 6.12496 24.5C6.12496 26.7458 6.92461 28.6684 8.52392 30.2677C10.1232 31.867 12.0458 32.6667 14.2916 32.6667Z" fill="#1C73E6"/>
</g>
<defs>
<clipPath id="clip0_100_4406">
<rect width="49" height="49" fill="white"/>
</clipPath>
</defs>
</svg>
